HIERARCHY
ROOT Hips
{
	OFFSET 0.00000 0.00000 0.00000
	CHANNELS 6 Xposition Yposition Zposition Zrotation Yrotation Xrotation 
	JOINT LHipJoint
	{
		OFFSET 0 0 0
		CHANNELS 3 Zrotation Yrotation Xrotation
		JOINT LeftUpLeg
		{
			OFFSET 1.58161 -1.81893 0.78828
			CHANNELS 3 Zrotation Yrotation Xrotation
			JOINT LeftLeg
			{
				OFFSET 2.53374 -6.96141 0.00000
				CHANNELS 3 Zrotation Yrotation Xrotation
				JOINT LeftFoot
				{
					OFFSET 2.63509 -7.23986 0.00000
					CHANNELS 3 Zrotation Yrotation Xrotation
					JOINT LeftToeBase
					{
						OFFSET 0.14115 -0.38781 2.05350
						CHANNELS 3 Zrotation Yrotation Xrotation
						End Site
						{
							OFFSET 0.00000 -0.00000 1.05543
						}
					}
				}
			}
		}
	}
	JOINT RHipJoint
	{
		OFFSET 0 0 0
		CHANNELS 3 Zrotation Yrotation Xrotation
		JOINT RightUpLeg
		{
			OFFSET -1.11138 -1.81893 0.78828
			CHANNELS 3 Zrotation Yrotation Xrotation
			JOINT RightLeg
			{
				OFFSET -2.58392 -7.09926 0.00000
				CHANNELS 3 Zrotation Yrotation Xrotation
				JOINT RightFoot
				{
					OFFSET -2.66423 -7.31992 0.00000
					CHANNELS 3 Zrotation Yrotation Xrotation
					JOINT RightToeBase
					{
						OFFSET -0.18831 -0.51739 2.12114
						CHANNELS 3 Zrotation Yrotation Xrotation
						End Site
						{
							OFFSET -0.00000 -0.00000 1.09845
						}
					}
				}
			}
		}
	}
	JOINT LowerBack
	{
		OFFSET 0 0 0
		CHANNELS 3 Zrotation Yrotation Xrotation
		JOINT Spine
		{
			OFFSET -0.01511 1.97958 -0.08829
			CHANNELS 3 Zrotation Yrotation Xrotation
			JOINT Spine1
			{
				OFFSET 0.08344 1.97334 -0.04330
				CHANNELS 3 Zrotation Yrotation Xrotation
				JOINT Neck
				{
					OFFSET 0 0 0
					CHANNELS 3 Zrotation Yrotation Xrotation
					JOINT Neck1
					{
						OFFSET 0.00559 1.76246 0.31246
						CHANNELS 3 Zrotation Yrotation Xrotation
						JOINT Head
						{
							OFFSET -0.07011 1.80354 -0.30524
							CHANNELS 3 Zrotation Yrotation Xrotation
							End Site
							{
								OFFSET -0.02385 1.83547 -0.13906
							}
						}
					}
				}
				JOINT LeftShoulder
				{
					OFFSET 0 0 0
					CHANNELS 3 Zrotation Yrotation Xrotation
					JOINT LeftArm
					{
						OFFSET 3.20667 1.30156 -0.60240
						CHANNELS 3 Zrotation Yrotation Xrotation
						JOINT LeftForeArm
						{
							OFFSET 4.95663 -0.00000 0.00000
							CHANNELS 3 Zrotation Yrotation Xrotation
							JOINT LeftHand
							{
								OFFSET 3.38177 -0.00000 0.00000
								CHANNELS 3 Zrotation Yrotation Xrotation
								JOINT LeftFingerBase
								{
									OFFSET 0 0 0
									CHANNELS 3 Zrotation Yrotation Xrotation
									JOINT LeftHandIndex1
									{
										OFFSET 0.66291 -0.00000 0.00000
										CHANNELS 3 Zrotation Yrotation Xrotation
										End Site
										{
											OFFSET 0.53445 -0.00000 0.00000
										}
									}
								}
								JOINT LThumb
								{
									OFFSET 0 0 0
									CHANNELS 3 Zrotation Yrotation Xrotation
									End Site
									{
										OFFSET 0.54261 -0.00000 0.54261
									}
								}
							}
						}
					}
				}
				JOINT RightShoulder
				{
					OFFSET 0 0 0
					CHANNELS 3 Zrotation Yrotation Xrotation
					JOINT RightArm
					{
						OFFSET -3.06877 1.34672 -0.60964
						CHANNELS 3 Zrotation Yrotation Xrotation
						JOINT RightForeArm
						{
							OFFSET -5.08365 -0.00000 0.00000
							CHANNELS 3 Zrotation Yrotation Xrotation
							JOINT RightHand
							{
								OFFSET -3.35984 -0.00000 0.00000
								CHANNELS 3 Zrotation Yrotation Xrotation
								JOINT RightFingerBase
								{
									OFFSET 0 0 0
									CHANNELS 3 Zrotation Yrotation Xrotation
									JOINT RightHandIndex1
									{
										OFFSET -0.82076 -0.00000 0.00000
										CHANNELS 3 Zrotation Yrotation Xrotation
										End Site
										{
											OFFSET -0.66172 -0.00000 0.00000
										}
									}
								}
								JOINT RThumb
								{
									OFFSET 0 0 0
									CHANNELS 3 Zrotation Yrotation Xrotation
									End Site
									{
										OFFSET -0.67182 -0.00000 0.67182
									}
								}
							}
						}
					}
				}
			}
		}
	}
}
MOTION
Frames: 15
Frame Time: .0083333
-7.8282 17.3240 2.5357 -16.4348 51.8895 -0.9430 0.0000 0.0000 0.0000 4.1832 3.6418 -2.8981 0.8900 6.0132 16.8228 -0.2372 21.6339 -28.8373 0.0157 -0.8078 -2.2202 0.0000 0.0000 0.0000 23.8050 26.7232 -31.3504 -4.8055 -13.1614 39.9756 0.7388 19.7423 -6.4835 -0.8920 -6.0199 16.8421 -12.6509 -10.9772 5.8466 -1.3508 -15.4213 -0.4808 5.9577 -7.5590 -0.8451 1.9218 21.1139 -5.6199 -13.4634 31.1081 14.1694 -1.4341 14.0416 7.7903 0.0000 -0.0000 0.0000 161.2000 -42.9430 -172.0261 25.3032 -36.5123 -8.4697 -0.0000 0.0000 -0.8063 27.6960 -4.6199 -2.4210 -7.1250 0.0000 -0.0000 -1.6846 -65.2319 -179.1760 0.0000 -0.0000 0.0000 22.8851 43.5633 -30.2301 -130.5527 52.7701 -94.2666 0.0000 0.0000 4.6559 -64.4545 14.5141 -27.6707 7.1250 -0.0000 -0.0000 -22.6364 -0.9542 -24.2435
-7.8327 17.3296 2.5166 -16.3767 51.8540 -0.8479 0.0000 0.0000 0.0000 4.1267 3.8876 -3.1843 0.9132 6.0891 17.0432 -0.1840 21.2624 -28.6858 0.0116 -0.6956 -1.9117 0.0000 0.0000 0.0000 23.6635 26.8833 -31.3044 -4.7631 -13.1120 39.7890 0.7313 19.6217 -6.4212 -0.8858 -5.9994 16.7827 -12.6308 -11.0039 5.9050 -1.3614 -15.4633 -0.4701 5.9475 -7.5789 -0.8659 1.8462 21.1452 -5.7737 -13.4998 31.1847 14.2361 -1.4053 14.0548 7.8399 -0.0000 -0.0000 0.0000 160.9887 -42.8624 -171.9359 25.2794 -36.4882 -8.4555 -0.0000 0.0000 -0.5816 27.9282 -4.4530 -2.3568 -7.1250 0.0000 -0.0000 -2.0590 -65.0534 -179.0013 -0.0000 -0.0000 0.0000 22.3558 43.4066 -30.7162 -130.5349 52.7775 -94.2524 0.0000 0.0000 4.1792 -64.3413 14.5683 -27.6372 7.1250 -0.0000 -0.0000 -22.5616 -0.9484 -24.1509
-7.8371 17.3402 2.4987 -16.2810 51.8107 -0.7616 0.0000 0.0000 0.0000 4.0307 4.1979 -3.5891 0.9421 6.1821 17.3138 -0.2387 21.2834 -28.3046 0.0185 -0.8773 -2.4112 0.0000 0.0000 0.0000 23.5213 27.0276 -31.1931 -4.7139 -13.0542 39.5715 0.7288 19.5286 -6.3309 -0.8810 -5.9837 16.7370 -12.6627 -10.9904 6.0179 -1.3908 -15.4644 -0.4717 5.9593 -7.5741 -0.9297 1.8976 21.1511 -5.8303 -13.5909 31.2349 14.3424 -1.4128 14.0588 7.9133 -0.0000 0.0000 0.0000 160.8276 -42.6966 -171.8761 25.1912 -36.3988 -8.4031 -0.0000 0.0000 -0.6448 27.9237 -4.2779 -2.2640 -7.1250 0.0000 -0.0000 -2.0472 -64.8555 -179.0165 -0.0000 0.0000 0.0000 21.9201 43.1014 -31.0006 -130.4077 52.8297 -94.1511 0.0000 0.0000 3.8017 -64.3016 14.5278 -27.5315 7.1250 -0.0000 -0.0000 -22.5529 -1.0484 -24.0975
-7.8420 17.3483 2.4798 -16.3224 51.7605 -0.7930 0.0000 0.0000 0.0000 4.0460 4.5308 -4.0276 0.9774 6.2934 17.6382 -0.2832 21.2901 -27.9736 0.0319 -1.1530 -3.1699 0.0000 0.0000 0.0000 23.4918 27.1106 -31.0936 -4.6595 -12.9898 39.3302 0.7296 19.4555 -6.2253 -0.8622 -5.9212 16.5560 -12.6428 -10.9405 6.0843 -1.4079 -15.4034 -0.4296 5.9453 -7.5446 -0.9422 1.9939 21.1152 -5.8373 -13.6826 31.2141 14.4195 -1.4415 14.0375 7.9696 -0.0000 -0.0000 0.0000 160.6808 -42.5149 -171.7420 25.1386 -36.3453 -8.3719 -0.0000 0.0000 -0.9520 27.8300 -4.1881 -2.2079 -7.1250 0.0000 -0.0000 -1.8966 -64.7506 -179.0935 -0.0000 -0.0000 0.0000 21.5782 42.7161 -31.2139 -130.2005 52.9143 -93.9859 0.0000 0.0000 3.4959 -64.5153 14.4625 -27.6528 7.1250 -0.0000 -0.0000 -22.6831 -0.9961 -24.2851
-7.8473 17.3535 2.4553 -16.4107 51.7389 -0.7920 0.0000 0.0000 0.0000 4.0995 4.9257 -4.5509 1.0168 6.4152 17.9940 -0.2605 20.9777 -27.6789 0.0380 -1.2580 -3.4590 0.0000 0.0000 0.0000 23.4638 27.0236 -31.1545 -4.6020 -12.9211 39.0738 0.7509 19.5202 -6.0360 -0.8513 -5.8844 16.4494 -12.5459 -10.8847 6.0746 -1.4264 -15.3177 -0.3800 5.8769 -7.5059 -0.9293 1.9324 21.0558 -5.8831 -13.6213 31.1229 14.4303 -1.4285 13.9942 7.9531 -0.0000 0.0000 0.0000 160.6068 -42.3201 -171.6670 25.0642 -36.2695 -8.3279 -0.0000 0.0000 -1.0203 27.8415 -4.0950 -2.1600 -7.1250 0.0000 -0.0000 -1.9124 -64.6455 -179.0906 -0.0000 0.0000 0.0000 21.2810 42.3710 -31.5225 -130.0917 52.9584 -93.8991 0.0000 0.0000 3.0825 -64.4857 14.3455 -27.4350 7.1250 -0.0000 -0.0000 -22.7025 -1.2208 -24.2134
-7.8538 17.3696 2.4321 -16.3695 51.7307 -0.7204 0.0000 0.0000 0.0000 4.0400 5.4218 -5.0951 1.0502 6.5165 18.2905 -0.4879 21.4110 -26.5115 0.1474 -2.4740 -6.8175 0.0000 0.0000 0.0000 23.3797 26.8696 -31.1792 -4.5461 -12.8537 38.8232 0.7770 19.6566 -5.8812 -0.8437 -5.8586 16.3748 -12.6102 -10.8286 6.1405 -1.4728 -15.2532 -0.3415 5.8735 -7.4734 -0.9329 1.9845 21.0104 -5.8823 -13.5681 31.0436 14.4457 -1.4297 13.9626 7.9496 0.0000 -0.0000 0.0000 160.6933 -42.2026 -171.8308 25.0221 -36.2266 -8.3030 -0.0000 0.0000 -0.9096 27.5188 -3.8951 -2.0269 -7.1250 0.0000 -0.0000 -1.3997 -64.4085 -179.3421 0.0000 -0.0000 0.0000 21.1380 42.1276 -31.7121 -130.0283 52.9841 -93.8485 0.0000 0.0000 2.6121 -64.3239 14.1085 -26.8866 7.1250 -0.0000 -0.0000 -22.6892 -1.7548 -23.9659
-7.8615 17.3840 2.4117 -16.4445 51.7459 -0.8227 0.0000 0.0000 0.0000 4.0769 5.8333 -5.4702 1.0743 6.5886 18.5022 -0.7054 21.8321 -25.3293 0.3221 -3.6479 -10.0880 0.0000 0.0000 0.0000 23.3985 26.8391 -31.0536 -4.4930 -12.7890 38.5838 0.7781 19.6038 -5.7939 -0.8432 -5.8571 16.3704 -12.6872 -10.8162 6.2980 -1.5321 -15.2602 -0.2939 5.8792 -7.4742 -0.9645 2.3231 21.0272 -5.7764 -13.6609 31.0634 14.4809 -1.4869 13.9803 8.0121 -0.0000 0.0000 0.0000 160.8763 -42.2771 -172.0221 24.9979 -36.2018 -8.2886 -0.0000 0.0000 -0.9470 26.9101 -3.5990 -1.8249 -7.1250 0.0000 -0.0000 -0.4493 -64.0546 -179.7926 -0.0000 0.0000 0.0000 21.2852 42.0511 -31.6388 -129.8819 53.0430 -93.7315 0.0000 0.0000 2.1677 -64.3162 13.9338 -26.5976 7.1250 -0.0000 -0.0000 -22.7374 -2.0640 -23.8915
-7.8696 17.3842 2.3851 -16.7137 51.7921 -1.0331 0.0000 0.0000 0.0000 4.2519 5.9213 -5.6795 1.0936 6.6457 18.6700 -0.5874 21.2828 -25.4341 0.2411 -3.1601 -8.7248 0.0000 0.0000 0.0000 23.4708 26.8663 -31.0102 -4.4415 -12.7258 38.3505 0.7791 19.4717 -5.5964 -0.8770 -5.9705 16.6988 -12.5634 -10.8332 6.4191 -1.5268 -15.2894 -0.2513 5.8467 -7.4891 -1.0096 2.4536 21.0529 -5.7278 -13.7431 31.1042 14.4803 -1.5176 13.9995 8.0414 0.0000 -0.0000 0.0000 160.9221 -42.3852 -172.0344 24.8742 -36.0751 -8.2157 -0.0000 0.0000 -0.9893 26.5646 -3.4025 -1.6997 -7.1250 0.0000 -0.0000 0.0785 -63.8230 179.9642 0.0000 -0.0000 0.0000 21.4030 42.0289 -31.5382 -129.5934 53.1582 -93.5008 0.0000 0.0000 1.8271 -64.3320 13.6505 -26.1542 7.1250 -0.0000 -0.0000 -22.8309 -2.5469 -23.7948
-7.8772 17.3879 2.3546 -16.7803 51.8758 -1.0193 0.0000 0.0000 0.0000 4.2479 5.8652 -5.9249 1.1130 6.7023 18.8365 -0.4273 20.6512 -25.7945 0.1405 -2.4161 -6.6570 0.0000 0.0000 0.0000 23.3364 26.8675 -31.0779 -4.3914 -12.6638 38.1226 0.7871 19.3908 -5.3743 -0.9212 -6.1149 17.1181 -12.6055 -10.8643 6.4686 -1.4722 -15.3360 -0.2054 5.9224 -7.5182 -0.9534 2.3739 21.0660 -5.7758 -13.7762 31.1355 14.4821 -1.5097 14.0042 8.0469 0.0000 -0.0000 0.0000 160.7972 -42.5097 -171.9087 24.6675 -35.8622 -8.0943 -0.0000 0.0000 -0.8105 26.4053 -3.1498 -1.5628 -7.1250 0.0000 -0.0000 0.3110 -63.5358 179.8602 0.0000 -0.0000 0.0000 21.4293 42.1066 -31.5257 -129.1844 53.3192 -93.1731 0.0000 0.0000 1.4974 -64.3820 13.3898 -25.7779 7.1250 -0.0000 -0.0000 -22.9359 -2.9678 -23.7366
-7.8848 17.3990 2.3252 -16.6951 51.9711 -0.9102 0.0000 0.0000 0.0000 4.1384 5.9870 -6.2611 1.1352 6.7667 19.0261 -0.4522 20.5619 -25.4305 0.1927 -2.8270 -7.7974 0.0000 0.0000 0.0000 23.1208 26.8239 -31.1214 -4.3413 -12.6012 37.8934 0.7848 19.3211 -5.3056 -0.9146 -6.0935 17.0559 -12.8246 -10.8914 6.5362 -1.4648 -15.3886 -0.1422 6.0352 -7.5506 -0.8561 2.4818 21.1068 -5.7218 -13.8393 31.1890 14.4624 -1.5334 14.0324 8.0633 0.0000 0.0000 0.0000 160.7671 -42.7207 -171.7651 24.5281 -35.7178 -8.0128 -0.0000 0.0000 -0.7044 26.0693 -2.7836 -1.3610 -7.1250 0.0000 -0.0000 0.7991 -63.1179 179.6485 0.0000 0.0000 0.0000 21.6226 42.2685 -31.4642 -128.8259 53.4582 -92.8854 0.0000 0.0000 1.0860 -64.4255 13.2720 -25.6273 7.1250 -0.0000 -0.0000 -22.9943 -3.1437 -23.7292
-7.8932 17.4072 2.2920 -16.9139 52.0929 -1.0103 0.0000 0.0000 0.0000 4.2442 6.2340 -6.7474 1.1639 6.8489 19.2683 -0.4768 20.3744 -24.8993 0.2632 -3.3002 -9.1158 0.0000 0.0000 0.0000 23.1044 26.6567 -31.2388 -4.2863 -12.5319 37.6407 0.7942 19.3269 -5.1846 -0.8919 -6.0195 16.8411 -12.7772 -10.8868 6.5869 -1.4353 -15.3811 -0.0799 6.0450 -7.5527 -0.8223 2.6081 21.1200 -5.6683 -13.8656 31.2096 14.5091 -1.5507 14.0439 8.0956 -0.0000 0.0000 0.0000 160.8590 -42.8028 -171.7651 24.3935 -35.5776 -7.9343 -0.0000 0.0000 -0.7416 25.6025 -2.5486 -1.2206 -7.1250 0.0000 -0.0000 1.4812 -62.8442 179.3580 -0.0000 0.0000 0.0000 21.8495 42.2781 -31.3326 -128.5417 53.5670 -92.6569 0.0000 0.0000 0.5761 -64.6455 13.2957 -25.8884 7.1250 -0.0000 -0.0000 -23.1009 -2.9380 -23.9546
-7.9016 17.4139 2.2563 -17.2649 52.2634 -1.2084 0.0000 0.0000 0.0000 4.4343 6.6619 -7.4344 1.2026 6.9576 19.5898 -0.4339 19.8609 -24.4444 0.2560 -3.2555 -8.9909 0.0000 0.0000 0.0000 23.1638 26.4246 -31.3708 -4.2254 -12.4544 37.3591 0.8094 19.3428 -4.9937 -0.8656 -5.9325 16.5886 -12.6956 -10.8513 6.6235 -1.3328 -15.3272 -0.0029 6.1077 -7.5363 -0.7623 2.6156 21.0840 -5.6639 -13.8690 31.1709 14.5725 -1.5552 14.0214 8.1147 -0.0000 -0.0000 0.0000 160.9606 -42.7353 -171.9048 24.1559 -35.3286 -7.7965 -0.0000 0.0000 -0.7554 25.1349 -2.3820 -1.1171 -7.1250 0.0000 -0.0000 2.1611 -62.6480 179.0732 -0.0000 -0.0000 0.0000 22.0212 42.2013 -31.1127 -128.1790 53.7040 -92.3648 0.0000 -0.0000 -0.3019 -65.0943 13.8866 -27.3346 7.1250 -0.0000 -0.0000 -23.1538 -1.5475 -24.6450
-7.9094 17.4219 2.2219 -17.4378 52.4326 -1.3601 0.0000 0.0000 0.0000 4.5106 7.2242 -8.0881 1.2469 7.0801 19.9528 -0.4053 19.3315 -23.8414 0.2803 -3.4049 -9.4082 0.0000 0.0000 0.0000 23.1457 26.1959 -31.3709 -4.1615 -12.3723 37.0620 0.8198 19.3122 -4.8002 -0.8500 -5.8801 16.4369 -12.7774 -10.7700 6.7727 -1.2923 -15.2398 0.0719 6.2126 -7.4969 -0.7489 2.6589 21.0248 -5.5890 -13.7694 31.0653 14.6097 -1.5557 13.9855 8.0940 0.0000 0.0000 0.0000 161.2574 -42.6865 -172.2140 23.9141 -35.0733 -7.6572 -0.0000 0.0000 -0.7756 24.6225 -2.2794 -1.0443 -7.1250 0.0000 -0.0000 2.9063 -62.5215 178.7620 0.0000 0.0000 0.0000 22.4294 42.1465 -30.7172 -127.8169 53.8389 -92.0727 0.0000 -0.0000 -1.4541 -65.2671 14.3474 -28.2778 7.1250 -0.0000 -0.0000 -23.1056 -0.6002 -24.9975
-7.9176 17.4311 2.1863 -17.6469 52.5901 -1.4979 0.0000 0.0000 0.0000 4.6028 7.6888 -8.7383 1.2925 7.2033 20.3191 -0.4058 18.9368 -23.1837 0.3555 -3.8308 -10.6012 0.0000 0.0000 0.0000 23.1068 26.1195 -31.3683 -4.0926 -12.2827 36.7394 0.8203 19.1421 -4.5335 -0.8980 -6.0395 16.8992 -12.7321 -10.6833 6.8967 -1.2699 -15.1363 0.1185 6.2392 -7.4456 -0.7921 2.5645 20.9627 -5.6542 -13.4815 30.9512 14.7504 -1.4772 13.9387 8.0769 0.0000 0.0000 0.0000 161.6495 -42.7050 -172.5935 23.7252 -34.8723 -7.5489 -0.0000 0.0000 -0.6373 24.0403 -2.0035 -0.8935 -7.1250 0.0000 -0.0000 3.7211 -62.2044 178.4423 0.0000 0.0000 0.0000 22.9611 42.1518 -30.3784 -127.4870 53.9601 -91.8062 0.0000 -0.0000 -2.2886 -65.1038 13.9239 -27.4062 7.1250 -0.0000 -0.0000 -23.1475 -1.4744 -24.6692
-7.9267 17.4393 2.1481 -17.9666 52.7656 -1.6520 0.0000 0.0000 0.0000 4.7581 8.0809 -9.4876 1.3377 7.3233 20.6767 -0.4105 18.5840 -22.5460 0.4209 -4.1639 -11.5383 0.0000 0.0000 0.0000 23.1001 26.0432 -31.4550 -4.0194 -12.1861 36.3937 0.8153 18.9339 -4.2832 -0.9332 -6.1537 17.2311 -12.6173 -10.5736 6.8781 -1.1288 -14.9714 0.2234 6.3131 -7.3793 -0.6914 2.1804 20.8536 -5.9322 -13.2932 30.8195 14.8720 -1.3798 13.8521 8.0631 -0.0000 0.0000 0.0000 161.7940 -42.5854 -172.7860 23.5123 -34.6443 -7.4275 -0.0000 0.0000 -0.4793 23.5074 -1.6993 -0.7390 -7.1250 0.0000 -0.0000 4.4465 -61.8606 178.1742 -0.0000 0.0000 0.0000 23.1197 42.1320 -30.4042 -127.0564 54.1158 -91.4576 0.0000 -0.0000 -2.9155 -65.0357 13.4446 -26.5384 7.1250 -0.0000 -0.0000 -23.2568 -2.3766 -24.4045
